<svg xmlns="http://www.w3.org/2000/svg" viewBox="0 0 412.33 91.97">
  <title>VMware-Tanzu-Logo</title>
  <g>
    <g>
      <path d="M61.4,82.3H32.76a3.7,3.7,0,0,1-2.91-1.4L11.75,58.19a3.73,3.73,0,0,1-.7-3.22L18,27.15a3.69,3.69,0,0,1,1.94-2.42L45.5,11.89a3.76,3.76,0,0,1,3.32,0L74.74,24.72a3.72,3.72,0,0,1,2,2.47L83.29,55a3.71,3.71,0,0,1-.72,3.19L64.3,80.91A3.69,3.69,0,0,1,61.4,82.3ZM32.82,78.47H61.34l18.2-22.64L73,28.13,47.17,15.35,21.67,28.13,14.79,55.84Z" style="fill: #218ecd"/>
      <g>
        <polygon points="80.03 19.61 83.28 16.94 49.08 0 49.08 4.28 80.03 19.61" style="fill: #17bed2"/>
        <polygon points="5 59.4 0.82 60.33 24.7 90.27 26.57 86.46 5 59.4" style="fill: #78bd43"/>
        <polygon points="45.24 4.3 45.24 0.01 11.49 16.93 14.64 19.65 45.24 4.3" style="fill: #17bed2"/>
        <polygon points="12.36 22.75 9.1 19.95 0 56.58 4.19 55.65 12.36 22.75" style="fill: #1e4488"/>
        <polygon points="90.17 55.67 94.34 56.59 85.66 19.95 82.36 22.67 90.17 55.67" style="fill: #1e4488"/>
        <polygon points="89.31 59.41 67.51 86.51 69.38 90.32 93.49 60.33 89.31 59.41" style="fill: #78bd43"/>
        <polygon points="30.02 88.13 28.14 91.97 65.91 91.97 64.03 88.13 30.02 88.13" style="fill: #17bed2"/>
      </g>
    </g>
    <g>
      <path d="M152.82,29.73l-12.1,28.08h-4.54l-12.1-28.08h4.58l9.81,22.8,9.77-22.8Z" style="fill: #231f20"/>
      <path d="M158,29.73h4.13L172,48.08l9.85-18.35H186V57.81h-4.13v-20L172,56.17l-9.85-18.35v20H158Z" style="fill: #231f20"/>
      <path d="M190.79,36.67h4.13l4.82,15.74L205,36.67h3.44l5.23,15.74,4.86-15.74h4.13l-7.15,21.14h-3.72l-5-15.7-5.11,15.7H197.9Z" style="fill: #231f20"/>
      <path d="M241.07,38.6A8.83,8.83,0,0,1,243.4,45v12.8h-4V55a7.57,7.57,0,0,1-3.06,2.47,9.55,9.55,0,0,1-4,.88,8.49,8.49,0,0,1-5.6-1.84,6.07,6.07,0,0,1-2.21-4.91,6.27,6.27,0,0,1,1.13-3.66,7.41,7.41,0,0,1,3.06-2.49,10.35,10.35,0,0,1,4.27-.88,19.55,19.55,0,0,1,6.38,1.15V45a6,6,0,0,0-1.27-3.9c-.84-1-2.23-1.57-4.17-1.57a13.47,13.47,0,0,0-5.92,1.75l-1.51-3a17.93,17.93,0,0,1,8-2.13A8.62,8.62,0,0,1,241.07,38.6Zm-3.93,15.47a4.68,4.68,0,0,0,2.29-2.88V48.36a20,20,0,0,0-5.76-.81,6.1,6.1,0,0,0-3.68,1.1,3.32,3.32,0,0,0-1.51,2.78,3.18,3.18,0,0,0,1.33,2.68,5.48,5.48,0,0,0,3.41,1A7.74,7.74,0,0,0,237.14,54.07Z" style="fill: #231f20"/>
      <path d="M256.66,37.43a9.13,9.13,0,0,1,4.8-1.25V39.7a9.37,9.37,0,0,0-4.08.86A6.42,6.42,0,0,0,254.6,43a6.58,6.58,0,0,0-1,3.58V57.81h-4V36.67h4V40.8A7.63,7.63,0,0,1,256.66,37.43Z" style="fill: #231f20"/>
      <path d="M278.89,54.25a7.51,7.51,0,0,0,2.76-1.72L284,55a9.51,9.51,0,0,1-3.78,2.37,13.67,13.67,0,0,1-4.76.9,10.85,10.85,0,0,1-9.42-5.42A11.7,11.7,0,0,1,266,41.56a10.53,10.53,0,0,1,3.86-4,10.36,10.36,0,0,1,5.33-1.43,9.8,9.8,0,0,1,5.5,1.52A9.5,9.5,0,0,1,284.21,42a16.38,16.38,0,0,1,1.2,6.54H268.53a7.55,7.55,0,0,0,2.23,4.64A6.48,6.48,0,0,0,275.4,55,9.61,9.61,0,0,0,278.89,54.25Zm-8-13.08a7.16,7.16,0,0,0-2.31,4.37h12.92a7.39,7.39,0,0,0-1.94-4.33,5.69,5.69,0,0,0-4.27-1.67A6.45,6.45,0,0,0,270.88,41.17Z" style="fill: #231f20"/>
      <path d="M308.39,33.57h-9.24V29.73h22.56v3.84h-9.2V57.81h-4.12Z" style="fill: #231f20"/>
      <path d="M340.63,38.6A8.79,8.79,0,0,1,343,45v12.8h-4V55a7.54,7.54,0,0,1-3.07,2.47,9.51,9.51,0,0,1-4,.88,8.49,8.49,0,0,1-5.6-1.84,6.07,6.07,0,0,1-2.21-4.91,6.27,6.27,0,0,1,1.13-3.66,7.41,7.41,0,0,1,3.06-2.49,10.35,10.35,0,0,1,4.27-.88A19.59,19.59,0,0,1,339,45.67V45a6,6,0,0,0-1.27-3.9c-.84-1-2.23-1.57-4.17-1.57a13.47,13.47,0,0,0-5.92,1.75l-1.51-3a17.93,17.93,0,0,1,8-2.13A8.58,8.58,0,0,1,340.63,38.6Zm-3.92,15.47A4.68,4.68,0,0,0,339,51.19V48.36a20,20,0,0,0-5.76-.81,6.1,6.1,0,0,0-3.68,1.1,3.32,3.32,0,0,0-1.51,2.78,3.2,3.2,0,0,0,1.32,2.68,5.53,5.53,0,0,0,3.42,1A7.74,7.74,0,0,0,336.71,54.07Z" style="fill: #231f20"/>
      <path d="M364,37.21a7.06,7.06,0,0,1,2.8,2.88,8.83,8.83,0,0,1,1,4.27V57.81h-3.93V45.05a5.54,5.54,0,0,0-1.35-3.86A4.53,4.53,0,0,0,359,39.7a6.42,6.42,0,0,0-2.94.67A5.51,5.51,0,0,0,354,42.19a4.37,4.37,0,0,0-.78,2.5V57.81h-4V36.67h4v3.11a7.15,7.15,0,0,1,2.76-2.6,8.2,8.2,0,0,1,4-1A8,8,0,0,1,364,37.21Z" style="fill: #231f20"/>
      <path d="M372.07,54.78l11.85-14.47H372.31V36.67h17l0,3L377.38,54.17h12v3.64H372.07Z" style="fill: #231f20"/>
      <path d="M412.33,36.67V57.81h-4.05v-3a7.18,7.18,0,0,1-2.78,2.56,8.29,8.29,0,0,1-4,1,8.13,8.13,0,0,1-4.08-1,7.21,7.21,0,0,1-2.8-2.89,8.83,8.83,0,0,1-1-4.27V36.67h4V49.43A5.54,5.54,0,0,0,399,53.29a4.5,4.5,0,0,0,3.52,1.49,6.36,6.36,0,0,0,2.92-.67,5.56,5.56,0,0,0,2.1-1.82,4.35,4.35,0,0,0,.78-2.5V36.67Z" style="fill: #231f20"/>
    </g>
  </g>
</svg>
